# xmcd
#
# Track frame offsets:
#  150
#  19545
#  42740
#  65428
#  87413
#  106225
#  109693
#  139950
#  160165
#  179603
#  201826
#  222513
#  238808
#  255721
#  263811
#  285103
#  307426
#
# Disc length: 4399 seconds
#
# Revision: 0
# Processed by: cddbd v1.4PL0 Copyright (c) Steve Scherf et al.
# Submitted via: AltoMP3_Maker 3.0
#
DISCID=03112d11
DTITLE=Timbaland and Magoo - Welcome to our world
DYEAR=1900
DGENRE=
TTITLE0=Feel it
TTITLE1=Up jumps da' boogie
TTITLE2=Clock strikes
TTITLE3=15 after da' hour
TTITLE4=Ms. Parker
TTITLE5=Luv 2 luv U (Remix)
TTITLE6=Luv 2 luv U
TTITLE7=Smoke in da' air
TTITLE8=Intro Buddha
TTITLE9=Peepin' my style
TTITLE10=Writtin' rhymes
TTITLE11=Deep in your memory
TTITLE12=Clock strikes (Remix)
TTITLE13=Sex beat (Interlude)
TTITLE14=Man undercover
TTITLE15=Joy
TTITLE16=Up jumps da' boogie (Remix)
EXTD=
EXTT0=
EXTT1=
EXTT2=
EXTT3=
EXTT4=
EXTT5=
EXTT6=
EXTT7=
EXTT8=
EXTT9=
EXTT10=
EXTT11=
EXTT12=
EXTT13=
EXTT14=
EXTT15=
EXTT16=
PLAYORDER=
